<svg width="91" height="17" viewBox="0 0 91 17" fill="none" xmlns="http://www.w3.org/2000/svg">
<path d="M0.123169 16.1401C0.123169 14.7401 0.123169 13.3268 0.123169 11.9001C0.136502 10.4734 0.143169 9.09343 0.143169 7.7601C0.156502 6.42676 0.169836 5.18676 0.183169 4.0401C0.209836 2.8801 0.236502 1.8601 0.263169 0.980097C1.0365 0.980097 1.68984 0.986763 2.22317 1.0001C2.76984 1.01343 3.2565 1.03343 3.68317 1.0601C3.68317 3.36676 3.6965 5.55343 3.72317 7.6201C5.5365 7.60676 7.36984 7.5401 9.22317 7.4201C9.22317 6.43343 9.22317 5.40676 9.22317 4.3401C9.22317 3.27343 9.22317 2.1801 9.22317 1.0601C10.3832 0.980097 11.5565 0.940097 12.7432 0.940097C12.7832 2.04676 12.8165 3.2601 12.8432 4.5801C12.8698 5.88676 12.8832 7.22676 12.8832 8.6001C12.8965 9.97343 12.9032 11.3068 12.9032 12.6001C12.9165 13.8934 12.9232 15.0734 12.9232 16.1401C12.2298 16.1401 11.5698 16.1334 10.9432 16.1201C10.3298 16.1068 9.7165 16.0868 9.10317 16.0601C9.12984 15.3401 9.14984 14.4201 9.16317 13.3001C9.1765 12.1668 9.18984 10.9001 9.20317 9.5001C7.96317 9.5001 6.90317 9.49343 6.02317 9.4801C5.1565 9.45343 4.3965 9.4201 3.74317 9.3801C3.78317 11.8468 3.84317 14.0734 3.92317 16.0601C3.3365 16.0868 2.7365 16.1068 2.12317 16.1201C1.50984 16.1334 0.843169 16.1401 0.123169 16.1401ZM20.2279 16.2001C19.1479 16.2001 18.1745 15.9534 17.3079 15.4601C16.4545 14.9534 15.7745 14.2734 15.2679 13.4201C14.7745 12.5534 14.5279 11.5734 14.5279 10.4801C14.5279 9.38676 14.7679 8.41343 15.2479 7.5601C15.7412 6.70676 16.4079 6.03343 17.2479 5.5401C18.1012 5.04676 19.0679 4.8001 20.1479 4.8001C21.1612 4.8001 22.0679 5.02676 22.8679 5.4801C23.6812 5.9201 24.3345 6.5401 24.8279 7.3401C25.3345 8.1401 25.6345 9.0801 25.7279 10.1601L17.7879 11.6401C18.0412 12.5068 18.4412 13.2134 18.9879 13.7601C19.5345 14.2934 20.1479 14.5601 20.8279 14.5601C21.4545 14.5601 22.0745 14.3468 22.6879 13.9201C23.3012 13.4801 23.7745 12.9201 24.1079 12.2401L25.5279 13.4401C24.8745 14.3201 24.0879 15.0001 23.1679 15.4801C22.2479 15.9601 21.2679 16.2001 20.2279 16.2001ZM17.5279 9.6801C17.5279 9.7601 17.5279 9.82676 17.5279 9.8801L22.1879 9.2401C22.0945 8.38676 21.8212 7.7001 21.3679 7.1801C20.9145 6.6601 20.3612 6.4001 19.7079 6.4001C19.0279 6.4001 18.4945 6.69343 18.1079 7.2801C17.7212 7.85343 17.5279 8.65343 17.5279 9.6801ZM30.7702 16.2001C29.6369 16.2001 28.7102 15.9268 27.9902 15.3801C27.2835 14.8201 26.9302 14.0934 26.9302 13.2001C26.9302 12.3868 27.2235 11.6334 27.8102 10.9401C28.4102 10.2468 29.2369 9.6601 30.2902 9.1801C31.3435 8.68676 32.5502 8.34676 33.9102 8.1601C33.4302 6.98676 32.7702 6.4001 31.9302 6.4001C31.4235 6.4001 30.7702 6.59343 29.9702 6.9801C29.1702 7.36676 28.3569 7.87343 27.5302 8.5001L26.9302 6.5001C28.9169 5.36676 30.7969 4.8001 32.5702 4.8001C33.9569 4.8001 35.0702 5.1801 35.9102 5.9401C36.7502 6.68676 37.3635 7.88676 37.7502 9.5401C38.1369 11.1801 38.3302 13.3534 38.3302 16.0601C38.0769 16.0734 37.6235 16.0868 36.9702 16.1001C36.3302 16.1268 35.6369 16.1401 34.8902 16.1401C34.8902 15.7134 34.8835 15.2934 34.8702 14.8801C33.4969 15.7601 32.1302 16.2001 30.7702 16.2001ZM30.2302 13.0601C30.2302 13.4734 30.3902 13.8001 30.7102 14.0401C31.0435 14.2801 31.4835 14.4001 32.0302 14.4001C32.9902 14.4001 33.9169 13.9868 34.8102 13.1601C34.7302 11.7468 34.5769 10.5534 34.3502 9.5801C33.8302 9.68676 33.3235 9.8601 32.8302 10.1001C32.3502 10.3401 31.9102 10.6268 31.5102 10.9601C31.1235 11.2801 30.8102 11.6268 30.5702 12.0001C30.3435 12.3601 30.2302 12.7134 30.2302 13.0601ZM43.3679 0.960097C43.3412 1.7201 43.3212 2.46676 43.3079 3.2001C43.2945 3.93343 43.2879 4.61343 43.2879 5.2401C43.2879 7.34676 43.3479 9.07343 43.4679 10.4201C43.6012 11.7534 43.8012 12.7801 44.0679 13.5001C44.3345 14.2068 44.6879 14.6734 45.1279 14.9001L43.7279 16.5001C43.0079 16.4201 42.4012 16.1868 41.9079 15.8001C41.4279 15.4001 41.0412 14.8068 40.7479 14.0201C40.4545 13.2201 40.2412 12.1868 40.1079 10.9201C39.9879 9.65343 39.9279 8.10676 39.9279 6.2801C39.9279 5.5201 39.9345 4.69343 39.9479 3.8001C39.9745 2.89343 40.0012 1.97343 40.0279 1.0401C40.4145 1.01343 40.8745 0.99343 41.4079 0.980097C41.9412 0.966764 42.5945 0.960097 43.3679 0.960097Z" fill="#2CC6CF"/>
<path d="M52.5941 16.2001C51.2608 16.2001 50.0741 15.8868 49.0341 15.2601C48.0074 14.6334 47.2008 13.7668 46.6141 12.6601C46.0274 11.5534 45.7341 10.2801 45.7341 8.8401C45.7341 7.66676 45.9274 6.59343 46.3141 5.6201C46.7141 4.63343 47.2741 3.7801 47.9941 3.0601C48.7141 2.3401 49.5608 1.78676 50.5341 1.4001C51.5208 1.0001 52.6008 0.800097 53.7741 0.800097C54.9608 0.800097 56.0474 1.0001 57.0341 1.4001C58.0341 1.8001 58.8008 2.3401 59.3341 3.0201C58.4541 4.0201 57.5674 4.8201 56.6741 5.4201C55.7408 3.5001 54.4474 2.5401 52.7941 2.5401C51.6874 2.5401 50.8208 2.97343 50.1941 3.8401C49.5674 4.69343 49.2541 5.89343 49.2541 7.4401C49.2541 8.4001 49.3674 9.3001 49.5941 10.1401C49.8341 10.9801 50.1541 11.7268 50.5541 12.3801C50.9541 13.0201 51.4141 13.5268 51.9341 13.9001C52.4674 14.2601 53.0341 14.4401 53.6341 14.4401C54.0874 14.4401 54.4808 14.3468 54.8141 14.1601C55.1608 13.9601 55.3608 13.7134 55.4141 13.4201C55.4008 13.1268 55.3741 12.7668 55.3341 12.3401C55.3074 11.9001 55.2674 11.4401 55.2141 10.9601C55.1741 10.4801 55.1341 10.0134 55.0941 9.5601C53.9608 9.53343 53.1274 9.5001 52.5941 9.4601L52.5341 7.9401C53.9341 7.9401 55.2674 7.92676 56.5341 7.9001C57.8141 7.87343 58.9341 7.83343 59.8941 7.7801L59.8341 9.6201C59.3808 9.6201 58.9408 9.6201 58.5141 9.6201C58.5541 10.1934 58.5808 10.8668 58.5941 11.6401C58.6208 12.4001 58.6341 13.1534 58.6341 13.9001C58.1408 14.3668 57.5608 14.7734 56.8941 15.1201C56.2274 15.4668 55.5274 15.7334 54.7941 15.9201C54.0608 16.1068 53.3274 16.2001 52.5941 16.2001ZM64.735 16.2001C63.6017 16.2001 62.675 15.9268 61.955 15.3801C61.2484 14.8201 60.895 14.0934 60.895 13.2001C60.895 12.3868 61.1884 11.6334 61.775 10.9401C62.375 10.2468 63.2017 9.6601 64.255 9.1801C65.3084 8.68676 66.515 8.34676 67.875 8.1601C67.395 6.98676 66.735 6.4001 65.895 6.4001C65.3884 6.4001 64.735 6.59343 63.935 6.9801C63.135 7.36676 62.3217 7.87343 61.495 8.5001L60.895 6.5001C62.8817 5.36676 64.7617 4.8001 66.535 4.8001C67.9217 4.8001 69.035 5.1801 69.875 5.9401C70.715 6.68676 71.3284 7.88676 71.715 9.5401C72.1017 11.1801 72.295 13.3534 72.295 16.0601C72.0417 16.0734 71.5884 16.0868 70.935 16.1001C70.295 16.1268 69.6017 16.1401 68.855 16.1401C68.855 15.7134 68.8484 15.2934 68.835 14.8801C67.4617 15.7601 66.095 16.2001 64.735 16.2001ZM64.195 13.0601C64.195 13.4734 64.355 13.8001 64.675 14.0401C65.0084 14.2801 65.4484 14.4001 65.995 14.4001C66.955 14.4001 67.8817 13.9868 68.775 13.1601C68.695 11.7468 68.5417 10.5534 68.315 9.5801C67.795 9.68676 67.2884 9.8601 66.795 10.1001C66.315 10.3401 65.875 10.6268 65.475 10.9601C65.0884 11.2801 64.775 11.6268 64.535 12.0001C64.3084 12.3601 64.195 12.7134 64.195 13.0601ZM73.9127 3.6001V0.900097H77.3127V3.6001H73.9127ZM73.9927 16.1401C73.9794 15.7001 73.966 15.1068 73.9527 14.3601C73.9394 13.6001 73.926 12.7334 73.9127 11.7601C73.9127 10.7734 73.906 9.7201 73.8927 8.6001C73.8927 7.4801 73.8927 6.33343 73.8927 5.1601C74.4927 5.1601 75.1194 5.16676 75.7727 5.1801C76.4394 5.19343 76.9594 5.21343 77.3327 5.2401C77.3327 6.21343 77.326 7.23343 77.3127 8.3001C77.3127 9.36676 77.306 10.4068 77.2927 11.4201C77.2927 12.4201 77.286 13.3268 77.2727 14.1401C77.2594 14.9534 77.246 15.5934 77.2327 16.0601C76.6194 16.0868 76.0327 16.1068 75.4727 16.1201C74.9127 16.1334 74.4194 16.1401 73.9927 16.1401ZM79.6474 16.1401C79.6341 15.7134 79.6207 15.1268 79.6074 14.3801C79.5941 13.6201 79.5807 12.7468 79.5674 11.7601C79.5674 10.7601 79.5607 9.68676 79.5474 8.5401C79.5474 7.3801 79.5474 6.18676 79.5474 4.9601C79.8407 4.9601 80.2007 4.96676 80.6274 4.9801C81.0541 4.9801 81.4807 4.98676 81.9074 5.0001C82.3474 5.01343 82.7074 5.02676 82.9874 5.0401C82.9874 5.37343 82.9874 5.71343 82.9874 6.0601C84.1207 5.2201 85.2741 4.8001 86.4474 4.8001C87.5274 4.8001 88.4007 5.1801 89.0674 5.9401C89.7341 6.7001 90.2141 7.91343 90.5074 9.5801C90.8141 11.2468 90.9674 13.4334 90.9674 16.1401C90.6607 16.1401 90.2941 16.1334 89.8674 16.1201C89.4407 16.1201 89.0207 16.1134 88.6074 16.1001C88.1941 16.0868 87.8341 16.0734 87.5274 16.0601C87.5274 13.7001 87.4607 11.8134 87.3274 10.4001C87.1941 8.98676 86.9741 7.96676 86.6674 7.3401C86.3607 6.71343 85.9474 6.4001 85.4274 6.4001C85.0007 6.4001 84.5674 6.5801 84.1274 6.9401C83.6874 7.3001 83.3074 7.77343 82.9874 8.3601C82.9741 9.49343 82.9607 10.5668 82.9474 11.5801C82.9474 12.5934 82.9407 13.4934 82.9274 14.2801C82.9141 15.0534 82.9007 15.6468 82.8874 16.0601C82.4741 16.0734 81.9674 16.0868 81.3674 16.1001C80.7807 16.1268 80.2074 16.1401 79.6474 16.1401Z" fill="#C0A5EF"/>
</svg>
