<svg width="57" height="40" viewBox="0 0 57 40" fill="none" xmlns="http://www.w3.org/2000/svg">
<path d="M49.5844 13.5122C55.4149 16.8785 57.4127 24.334 54.0464 30.1646C50.6801 35.9951 43.2246 37.9928 37.3941 34.6266L29.7234 30.1979C28.1291 29.2774 27.5829 27.2388 28.5034 25.6445L32.9318 17.9742C36.2981 12.1436 43.7538 10.1459 49.5844 13.5122Z" fill="url(#paint0_linear_269_4263)"/>
<path d="M4.34814 31.0982C0.981865 25.2677 2.97953 17.8121 8.81009 14.4458C14.6407 11.0796 22.0962 13.0773 25.4624 18.9078L29.8911 26.5785C30.8115 28.1728 30.2653 30.2114 28.671 31.1319L21.0007 35.5603C15.1701 38.9266 7.71445 36.9289 4.34814 31.0982Z" fill="url(#paint1_linear_269_4263)"/>
<path d="M20.9611 5.41534C25.7218 0.654708 33.4403 0.654664 38.2009 5.4153C42.9616 10.1759 42.9616 17.8944 38.2009 22.6551L31.9379 28.9181C30.6361 30.2199 28.5256 30.2199 27.2239 28.9181L20.9611 22.6553C16.2004 17.8947 16.2004 10.176 20.9611 5.41534Z" fill="url(#paint2_linear_269_4263)"/>
<path d="M20.9611 5.41534C25.7218 0.654708 33.4403 0.654664 38.2009 5.4153C42.9616 10.1759 42.9616 17.8944 38.2009 22.6551L31.9379 28.9181C30.6361 30.2199 28.5256 30.2199 27.2239 28.9181L20.9611 22.6553C16.2004 17.8947 16.2004 10.176 20.9611 5.41534Z" fill="url(#paint3_linear_269_4263)"/>
<mask id="mask0_269_4263" style="mask-type:alpha" maskUnits="userSpaceOnUse" x="2" y="11" width="54" height="27">
<path fill-rule="evenodd" clip-rule="evenodd" d="M54.0445 30.1642C57.4108 24.3336 55.413 16.8781 49.5824 13.5118C43.7518 10.1455 36.2962 12.1432 32.9299 17.9738L28.9255 24.9095L25.4605 18.9079C22.0942 13.0773 14.6387 11.0796 8.80815 14.4459C2.97759 17.8122 0.979921 25.2677 4.3462 31.0983C7.71251 36.9289 15.1681 38.9267 20.9987 35.5604L28.6691 31.1319C29.0926 30.8874 29.4422 30.5639 29.71 30.1908C29.7138 30.1931 29.7176 30.1953 29.7215 30.1975L37.3921 34.6261C43.2227 37.9924 50.6782 35.9947 54.0445 30.1642Z" fill="url(#paint4_linear_269_4263)"/>
</mask>
<g mask="url(#mask0_269_4263)">
<path d="M20.9592 5.41534C25.7198 0.654708 33.4384 0.654664 38.199 5.4153C42.9596 10.1759 42.9596 17.8944 38.199 22.6551L29.5789 31.2751L20.9591 22.6553C16.1984 17.8947 16.1985 10.176 20.9592 5.41534Z" fill="url(#paint5_linear_269_4263)"/>
</g>
<defs>
<linearGradient id="paint0_linear_269_4263" x1="32.9319" y1="17.9741" x2="54.0464" y2="30.1646" gradientUnits="userSpaceOnUse">
<stop stop-color="#C0A5EF"/>
<stop offset="1" stop-color="#E3DBFF"/>
</linearGradient>
<linearGradient id="paint1_linear_269_4263" x1="21.0006" y1="35.5604" x2="8.81009" y2="14.4458" gradientUnits="userSpaceOnUse">
<stop stop-color="#C0A5EF"/>
<stop offset="1" stop-color="#E3DBFF"/>
</linearGradient>
<linearGradient id="paint2_linear_269_4263" x1="38.2009" y1="5.4153" x2="20.961" y2="22.6552" gradientUnits="userSpaceOnUse">
<stop stop-color="#A5FAFF"/>
<stop offset="1" stop-color="#44D8E1"/>
</linearGradient>
<linearGradient id="paint3_linear_269_4263" x1="38.2009" y1="5.4153" x2="20.961" y2="22.6552" gradientUnits="userSpaceOnUse">
<stop stop-color="#A5FAFF"/>
<stop offset="1" stop-color="#44D8E1"/>
</linearGradient>
<linearGradient id="paint4_linear_269_4263" x1="13.1938" y1="40.5376" x2="45.1969" y2="8.53456" gradientUnits="userSpaceOnUse">
<stop stop-color="#C0A5EF"/>
<stop offset="1" stop-color="#E3DBFF"/>
</linearGradient>
<linearGradient id="paint5_linear_269_4263" x1="29.5791" y1="-3.20459" x2="29.5793" y2="31.2751" gradientUnits="userSpaceOnUse">
<stop stop-color="#4985DE"/>
<stop offset="1" stop-color="#A9CBFF"/>
</linearGradient>
</defs>
</svg>
